<?xml version="1.0" encoding="UTF-8"?>
<svg width="24px" height="24px" viewBox="0 0 24 24" version="1.1" xmlns="http://www.w3.org/2000/svg" xmlns:xlink="http://www.w3.org/1999/xlink">
    <!-- Generator: Sketch 55 (78076) - https://sketchapp.com -->
    <title>adobephotoshop</title>
    <desc>Created with Sketch.</desc>
    <g id="Page-1" stroke="none" stroke-width="1" fill="none" fill-rule="evenodd">
        <g id="adobephotoshop" fill="#31A8FF" fill-rule="nonzero">
            <path d="M9.85,8.42 C9.48,8.27 9.08,8.21 8.67,8.22 C8.41,8.22 8.18,8.22 7.99,8.23 C7.79,8.22 7.65,8.23 7.58,8.24 L7.58,11.6 C7.72,11.61 7.85,11.62 7.97,11.62 L8.5,11.62 C8.89,11.62 9.28,11.56 9.65,11.44 C9.97,11.35 10.25,11.16 10.47,10.91 C10.68,10.66 10.78,10.32 10.78,9.88 C10.79,9.57 10.71,9.26 10.55,8.99 C10.38,8.73 10.14,8.53 9.85,8.42 L9.85,8.42 Z M19.75,0.3 L4.25,0.3 C1.9,0.3 0,2.2 0,4.55 L0,19.449 C0,21.799 1.9,23.699 4.25,23.699 L19.75,23.699 C22.1,23.699 24,21.799 24,19.449 L24,4.55 C24,2.2 22.1,0.3 19.75,0.3 Z M12.359,11.95 C11.96,12.51 11.4,12.93 10.75,13.17 C10.07,13.42 9.32,13.51 8.5,13.51 C8.26,13.51 8.1,13.51 8,13.5 C7.9,13.49 7.76,13.49 7.57,13.49 L7.57,16.699 C7.58,16.769 7.53,16.83 7.46,16.84 L5.52,16.84 C5.44,16.84 5.4,16.799 5.4,16.709 L5.4,6.42 C5.4,6.35 5.43,6.31 5.5,6.31 C5.67,6.31 5.83,6.31 6.06,6.3 C6.3,6.29 6.55,6.29 6.82,6.28 C7.09,6.27 7.38,6.27 7.69,6.26 C8,6.25 8.3,6.25 8.6,6.25 C9.42,6.25 10.1,6.35 10.66,6.56 C11.16,6.73 11.62,7.01 12,7.38 C12.32,7.7 12.57,8.09 12.73,8.52 C12.879,8.94 12.959,9.37 12.959,9.82 C12.96,10.68 12.76,11.39 12.359,11.95 L12.359,11.95 Z M19.45,15.84 C19.17,16.24 18.779,16.549 18.33,16.731 C17.84,16.94 17.24,17.049 16.519,17.049 C16.06,17.049 15.609,17.01 15.16,16.92 C14.81,16.859 14.46,16.75 14.14,16.6 C14.07,16.561 14.019,16.491 14.029,16.411 L14.029,14.671 C14.029,14.642 14.04,14.601 14.07,14.581 C14.099,14.561 14.13,14.571 14.16,14.591 C14.55,14.821 14.96,14.982 15.4,15.081 C15.779,15.181 16.179,15.231 16.58,15.231 C16.96,15.231 17.23,15.18 17.41,15.09 C17.57,15.02 17.68,14.85 17.68,14.67 C17.68,14.529 17.6,14.4 17.44,14.27 C17.28,14.141 16.951,13.991 16.461,13.799 C15.951,13.619 15.482,13.379 15.041,13.08 C14.731,12.859 14.472,12.57 14.28,12.23 C14.121,11.91 14.041,11.56 14.051,11.209 C14.051,10.779 14.171,10.369 14.392,9.999 C14.642,9.599 15.011,9.279 15.441,9.079 C15.91,8.84 16.5,8.73 17.21,8.73 C17.62,8.73 18.04,8.76 18.45,8.82 C18.75,8.86 19.04,8.94 19.31,9.05 C19.349,9.06 19.39,9.1 19.41,9.14 C19.42,9.18 19.43,9.22 19.43,9.26 L19.43,10.89 C19.43,10.93 19.41,10.97 19.38,10.99 C19.29,11.01 19.24,11.01 19.2,10.99 C18.9,10.83 18.58,10.72 18.24,10.65 C17.87,10.57 17.5,10.52 17.12,10.52 C16.92,10.51 16.71,10.54 16.519,10.59 C16.39,10.62 16.279,10.69 16.209,10.79 C16.159,10.87 16.129,10.97 16.129,11.06 C16.129,11.15 16.169,11.24 16.23,11.32 C16.32,11.43 16.439,11.52 16.57,11.59 C16.799,11.71 17.04,11.82 17.279,11.92 C17.82,12.1 18.34,12.35 18.82,12.65 C19.15,12.859 19.42,13.14 19.609,13.48 C19.769,13.798 19.849,14.15 19.839,14.509 C19.85,14.98 19.71,15.449 19.45,15.84 L19.45,15.84 Z" id="Shape"></path>
        </g>
    </g>
</svg>