<?xml version="1.0" encoding="UTF-8"?>
<svg width="24px" height="24px" viewBox="0 0 24 24" version="1.1" xmlns="http://www.w3.org/2000/svg" xmlns:xlink="http://www.w3.org/1999/xlink">
    <!-- Generator: Sketch 55 (78076) - https://sketchapp.com -->
    <title>adobelightroomcc</title>
    <desc>Created with Sketch.</desc>
    <g id="Page-1" stroke="none" stroke-width="1" fill="none" fill-rule="evenodd">
        <g id="adobelightroomcc" fill="#31A8FF" fill-rule="nonzero">
            <path d="M19.75,0.3 L4.25,0.3 C1.9,0.3 0,2.2 0,4.55 L0,19.45 C0,21.8 1.9,23.7 4.25,23.7 L19.75,23.7 C22.1,23.7 24,21.8 24,19.45 L24,4.55 C24,2.2 22.1,0.3 19.75,0.3 Z M12.76,16.689 C12.76,16.74 12.731,16.779 12.7,16.81 C12.67,16.83 12.64,16.839 12.599,16.839 L6.26,16.839 C6.15,16.839 6.1,16.778 6.1,16.659 L6.1,6.44 C6.09,6.37 6.14,6.31 6.21,6.3 L8.21,6.3 C8.26,6.29 8.32,6.33 8.32,6.38 L8.32,14.81 L12.94,14.81 C13.041,14.81 13.071,14.859 13.05,14.95 L12.76,16.689 L12.76,16.689 Z M19.01,8.83 L19.01,10.78 C19.01,10.86 18.96,10.89 18.85,10.89 C18.201,10.85 17.55,10.97 16.96,11.23 C16.76,11.32 16.57,11.44 16.42,11.6 L16.42,16.7 C16.42,16.8 16.38,16.84 16.29,16.84 L14.34,16.84 C14.26,16.85 14.19,16.8 14.18,16.721 L14.18,11.14 C14.18,10.9 14.18,10.65 14.17,10.39 C14.16,10.13 14.16,9.87 14.15,9.61 C14.14,9.39 14.12,9.17 14.089,8.95 C14.079,8.9 14.109,8.85 14.159,8.84 C14.169,8.83 14.179,8.83 14.199,8.84 L15.949,8.84 C16.049,8.84 16.129,8.91 16.159,9 C16.199,9.07 16.229,9.15 16.239,9.23 C16.259,9.33 16.278,9.44 16.289,9.54 C16.299,9.65 16.31,9.77 16.31,9.9 C16.609,9.55 16.97,9.26 17.379,9.04 C17.839,8.79 18.349,8.67 18.869,8.68 C18.938,8.67 18.999,8.72 19.009,8.79 C19.01,8.8 19.01,8.81 19.01,8.83 Z" id="Shape"></path>
        </g>
    </g>
</svg>