<?xml version="1.0" encoding="UTF-8"?>
<svg width="24px" height="24px" viewBox="0 0 24 24" version="1.1" xmlns="http://www.w3.org/2000/svg" xmlns:xlink="http://www.w3.org/1999/xlink">
    <!-- Generator: Sketch 55 (78076) - https://sketchapp.com -->
    <title>bootstrap</title>
    <desc>Created with Sketch.</desc>
    <g id="Page-1" stroke="none" stroke-width="1" fill="none" fill-rule="evenodd">
        <g id="bootstrap" fill="#563D7C" fill-rule="nonzero">
            <path d="M20,0 L4,0 C1.793,0.006 0.006,1.793 0,4 L0,20 C0,22.2 1.8,24 4,24 L20,24 C22.2,24 24,22.2 24,20 L24,4 C24,1.8 22.2,0 20,0 Z M17.813,16.855 C17.613,17.337 17.296,17.762 16.89,18.089 C16.47,18.429 15.938,18.709 15.283,18.909 C14.629,19.112 13.851,19.214 12.95,19.214 L6.518,19.214 L6.518,5.214 L13.32,5.214 C14.578,5.214 15.586,5.497 16.34,6.074 C17.1,6.654 17.478,7.518 17.478,8.684 C17.478,9.389 17.306,9.994 16.96,10.494 C16.616,10.991 16.12,11.38 15.48,11.65 L15.48,11.696 C16.334,11.876 16.995,12.281 17.43,12.911 C17.865,13.541 18.088,14.337 18.088,15.298 C18.088,15.836 17.984,16.348 17.788,16.826 L17.813,16.853 L17.813,16.855 Z M15.037,13.405 C14.627,13.03 14.051,12.847 13.307,12.847 L8.985,12.847 L8.985,17.215 L13.319,17.215 C14.059,17.215 14.639,17.023 15.049,16.635 C15.459,16.25 15.669,15.701 15.669,14.995 C15.662,14.305 15.459,13.771 15.049,13.405 L15.032,13.405 L15.037,13.405 Z M14.437,10.582 C14.833,10.246 15.027,9.765 15.027,9.138 C15.027,8.434 14.852,7.934 14.497,7.648 C14.145,7.363 13.637,7.215 12.969,7.215 L8.969,7.215 L8.969,11.078 L12.969,11.078 C13.552,11.078 14.049,10.908 14.433,10.582 L14.437,10.582 Z" id="Shape"></path>
        </g>
    </g>
</svg>