<?xml version="1.0" encoding="UTF-8"?>
<svg width="24px" height="24px" viewBox="0 0 24 24" version="1.1" xmlns="http://www.w3.org/2000/svg" xmlns:xlink="http://www.w3.org/1999/xlink">
    <!-- Generator: Sketch 55 (78076) - https://sketchapp.com -->
    <title>git</title>
    <desc>Created with Sketch.</desc>
    <g id="Page-1" stroke="none" stroke-width="1" fill="none" fill-rule="evenodd">
        <g id="git" fill="#F05032" fill-rule="nonzero">
            <path d="M23.546,10.93 L13.067,0.452 C12.463,-0.151 11.485,-0.151 10.879,0.452 L8.708,2.627 L11.468,5.387 C12.113,5.172 12.847,5.317 13.357,5.828 C13.873,6.343 14.015,7.086 13.795,7.728 L16.453,10.388 C17.098,10.165 17.84,10.31 18.353,10.823 C19.074,11.543 19.074,12.707 18.353,13.427 C17.634,14.146 16.472,14.146 15.753,13.427 C15.214,12.886 15.079,12.09 15.349,11.431 L12.86,8.955 L12.86,15.48 C13.036,15.566 13.202,15.683 13.348,15.828 C14.061,16.549 14.061,17.711 13.348,18.428 C12.629,19.149 11.459,19.149 10.739,18.428 C10.02,17.709 10.02,16.549 10.739,15.83 C10.921,15.65 11.126,15.514 11.344,15.424 L11.344,8.835 C11.127,8.744 10.92,8.613 10.744,8.434 C10.199,7.889 10.068,7.092 10.348,6.425 L7.636,3.7 L0.45,10.881 C-0.15,11.486 -0.15,12.465 0.45,13.07 L10.93,23.547 C11.534,24.151 12.512,24.151 13.116,23.547 L23.546,13.117 C24.151,12.514 24.151,11.535 23.546,10.93" id="Path"></path>
        </g>
    </g>
</svg>