<?xml version="1.0" encoding="UTF-8"?>
<svg width="24px" height="24px" viewBox="0 0 24 24" version="1.1" xmlns="http://www.w3.org/2000/svg" xmlns:xlink="http://www.w3.org/1999/xlink">
    <!-- Generator: Sketch 55 (78076) - https://sketchapp.com -->
    <title>invision</title>
    <desc>Created with Sketch.</desc>
    <g id="Page-1" stroke="none" stroke-width="1" fill="none" fill-rule="evenodd">
        <g id="invision" fill="#FF3366" fill-rule="nonzero">
            <path d="M21.825,0 L2.175,0 C0.975,0 0,0.975 0,2.175 L0,21.825 C0,23.025 0.975,24 2.175,24 L21.825,24 C23.025,24 24,23.025 24,21.825 L24,2.175 C24,0.975 23.025,0 21.825,0 Z M8.02,4.667 C8.818,4.667 9.488,5.297 9.488,6.107 C9.488,6.927 8.818,7.551 8.02,7.551 L8.02,7.578 C7.217,7.578 6.566,6.928 6.566,6.123 C6.566,5.318 7.216,4.668 8.021,4.668 L8.02,4.667 Z M17.836,18.482 C16.352,18.482 15.632,17.597 15.632,16.392 C15.632,16.046 15.676,15.679 15.782,15.312 L16.492,12.767 C16.58,12.487 16.602,12.227 16.602,11.992 C16.602,11.172 16.102,10.677 15.306,10.677 C14.293,10.677 13.626,11.404 13.281,12.807 L11.901,18.342 L9.487,18.342 L9.919,16.602 C9.211,17.768 8.224,18.487 7.009,18.487 C5.542,18.487 4.852,17.645 4.852,16.374 C4.856,16.009 4.899,15.644 4.982,15.289 L4.982,15.291 L6.082,10.801 L4.375,10.801 L4.893,8.896 L8.993,8.896 L7.373,15.301 C7.268,15.711 7.223,16.051 7.223,16.287 C7.223,16.697 7.425,16.817 7.74,16.891 C7.935,16.931 9.465,16.903 10.3,15.051 L11.36,10.801 L9.637,10.801 L10.157,8.926 L13.877,8.926 L13.397,11.086 C14.044,9.886 15.334,8.731 16.609,8.731 C17.959,8.731 19.084,9.706 19.084,11.551 C19.084,12.085 19.004,12.616 18.844,13.126 L18.154,15.602 C18.094,15.856 18.05,16.067 18.05,16.262 C18.05,16.696 18.23,16.907 18.544,16.907 C18.858,16.907 19.279,16.667 19.744,15.347 L20.687,15.707 C20.132,17.671 19.111,18.481 17.837,18.481 L17.836,18.482 Z" id="Shape"></path>
        </g>
    </g>
</svg>