<?xml version="1.0" encoding="UTF-8"?>
<svg width="24px" height="24px" viewBox="0 0 24 24" version="1.1" xmlns="http://www.w3.org/2000/svg" xmlns:xlink="http://www.w3.org/1999/xlink">
    <!-- Generator: Sketch 55 (78076) - https://sketchapp.com -->
    <title>javascript</title>
    <desc>Created with Sketch.</desc>
    <g id="Page-1" stroke="none" stroke-width="1" fill="none" fill-rule="evenodd">
        <g id="javascript" fill="#F7DF1E" fill-rule="nonzero">
            <path d="M0,0 L24,0 L24,24 L0,24 L0,0 Z M22.034,18.276 C21.859,17.181 21.146,16.261 19.031,15.403 C18.295,15.058 17.477,14.818 17.234,14.263 C17.143,13.933 17.129,13.753 17.188,13.558 C17.338,12.912 18.103,12.718 18.703,12.898 C19.093,13.018 19.453,13.318 19.679,13.798 C20.713,13.122 20.713,13.122 21.434,12.673 C21.164,12.253 21.03,12.072 20.848,11.893 C20.218,11.188 19.379,10.828 18.014,10.859 L17.309,10.948 C16.633,11.113 15.989,11.473 15.599,11.953 C14.459,13.244 14.788,15.494 16.168,16.424 C17.533,17.444 19.529,17.668 19.784,18.629 C20.024,19.799 18.914,20.174 17.818,20.039 C17.007,19.859 16.558,19.453 16.063,18.703 L14.233,19.754 C14.443,20.234 14.683,20.443 15.043,20.863 C16.783,22.619 21.133,22.529 21.914,19.859 C21.943,19.769 22.154,19.154 21.988,18.209 L22.034,18.276 L22.034,18.276 Z M13.051,11.031 L10.803,11.031 C10.803,12.969 10.794,14.895 10.794,16.836 C10.794,18.068 10.857,19.199 10.656,19.547 C10.326,20.236 9.476,20.148 9.09,20.027 C8.694,19.831 8.493,19.561 8.26,19.172 C8.197,19.067 8.15,18.976 8.133,18.976 L6.308,20.101 C6.613,20.731 7.058,21.273 7.632,21.618 C8.487,22.128 9.636,22.293 10.839,22.023 C11.622,21.797 12.297,21.332 12.65,20.612 C13.16,19.682 13.052,18.542 13.047,17.266 C13.059,15.212 13.047,13.157 13.047,11.087 L13.051,11.031 L13.051,11.031 Z" id="Shape"></path>
        </g>
    </g>
</svg>