<?xml version="1.0" encoding="UTF-8"?>
<svg width="71px" height="81px" viewBox="0 0 71 81" version="1.1" xmlns="http://www.w3.org/2000/svg" xmlns:xlink="http://www.w3.org/1999/xlink">
    <!-- Generator: Sketch 55 (78076) - https://sketchapp.com -->
    <title>Group</title>
    <desc>Created with Sketch.</desc>
    <defs>
        <linearGradient x1="50%" y1="0%" x2="50%" y2="100%" id="linearGradient-1">
            <stop stop-color="#C600FF" offset="0%"></stop>
            <stop stop-color="#FFA500" offset="100%"></stop>
        </linearGradient>
        <linearGradient x1="50%" y1="0%" x2="50%" y2="100%" id="linearGradient-2">
            <stop stop-color="#C600FF" offset="0%"></stop>
            <stop stop-color="#FFA500" offset="100%"></stop>
        </linearGradient>
    </defs>
    <g id="Page-1" stroke="none" stroke-width="1" fill="none" fill-rule="evenodd">
        <g id="Group" fill-rule="nonzero">
            <path d="M10.9863281,21.4931641 L10.9863281,75.5068359 C10.9863281,78.5406267 8.5269548,81 5.49316406,81 L5.49316406,81 C2.45937332,81 3.71532212e-16,78.5406267 0,75.5068359 L0,21.4931641 C-3.71532212e-16,18.4593733 2.45937332,16 5.49316406,16 L5.49316406,16 C8.5269548,16 10.9863281,18.4593733 10.9863281,21.4931641 Z" id="Path-Copy-7" fill="url(#linearGradient-1)"></path>
            <path d="M55.9963281,5.49316406 L55.9963281,59.5068359 C55.9963281,62.5406267 53.5369548,65 50.5031641,65 L50.5031641,65 C47.4693733,65 45.01,62.5406267 45.01,59.5068359 L45.01,5.49316406 C45.01,2.45937332 47.4693733,5.57298318e-16 50.5031641,0 L50.5031641,0 C53.5369548,-5.57298318e-16 55.9963281,2.45937332 55.9963281,5.49316406 Z" id="Path-Copy-6" fill="url(#linearGradient-1)"></path>
            <path d="M70.9863281,21.4931641 L70.9863281,59.5068359 C70.9863281,62.5406267 68.5269548,65 65.4931641,65 L65.4931641,65 C62.4593733,65 60,62.5406267 60,59.5068359 L60,21.4931641 C60,18.4593733 62.4593733,16 65.4931641,16 L65.4931641,16 C68.5269548,16 70.9863281,18.4593733 70.9863281,21.4931641 Z" id="Path-Copy-5" fill="url(#linearGradient-2)"></path>
            <path d="M25.9863281,21.4931641 L25.9863281,65 L25.9863281,65 C19.9187466,65 15,60.0812534 15,54.0136719 L15,21.4931641 C15,18.4593733 17.4593733,16 20.4931641,16 L20.4931641,16 C23.5269548,16 25.9863281,18.4593733 25.9863281,21.4931641 Z" id="Path-Copy-4" fill="url(#linearGradient-2)"></path>
            <path d="M40.9863281,21.4931641 L40.9863281,54.0136719 C40.9863281,60.0812534 36.0675815,65 30,65 L30,65 L30,21.4931641 C30,18.4593733 32.4593733,16 35.4931641,16 L35.4931641,16 C38.5269548,16 40.9863281,18.4593733 40.9863281,21.4931641 Z" id="Path-Copy-3" fill="url(#linearGradient-2)"></path>
        </g>
    </g>
</svg>