<?xml version="1.0" encoding="UTF-8"?>
<svg width="22px" height="24px" viewBox="0 0 22 24" version="1.1" xmlns="http://www.w3.org/2000/svg" xmlns:xlink="http://www.w3.org/1999/xlink">
    <!-- Generator: Sketch 55 (78076) - https://sketchapp.com -->
    <title>node-dot-js</title>
    <desc>Created with Sketch.</desc>
    <g id="Page-1" stroke="none" stroke-width="1" fill="none" fill-rule="evenodd">
        <g id="node-dot-js" fill="#339933" fill-rule="nonzero">
            <path d="M10.998,24 C10.677,24 10.357,23.916 10.076,23.753 L7.14,22.016 C6.702,21.771 6.916,21.684 7.06,21.633 C7.645,21.43 7.763,21.383 8.388,21.029 C8.453,20.992 8.539,21.006 8.606,21.046 L10.862,22.385 C10.944,22.43 11.059,22.43 11.134,22.385 L19.929,17.309 C20.011,17.262 20.063,17.168 20.063,17.071 L20.063,6.921 C20.063,6.822 20.01,6.729 19.926,6.679 L11.135,1.607 C11.054,1.56 10.946,1.56 10.864,1.607 L2.075,6.68 C1.99,6.729 1.936,6.825 1.936,6.921 L1.936,17.071 C1.936,17.168 1.99,17.26 2.075,17.306 L4.484,18.698 C5.791,19.352 6.592,18.582 6.592,17.808 L6.592,7.787 C6.592,7.645 6.706,7.534 6.848,7.534 L7.963,7.534 C8.102,7.534 8.218,7.646 8.218,7.787 L8.218,17.808 C8.218,19.553 7.268,20.553 5.614,20.553 C5.106,20.553 4.705,20.553 3.588,20.002 L1.28,18.675 C0.71,18.346 0.358,17.73 0.358,17.071 L0.358,6.921 C0.358,6.262 0.711,5.646 1.28,5.318 L10.075,0.236 C10.632,-0.079 11.371,-0.079 11.923,0.236 L20.717,5.318 C21.287,5.647 21.641,6.262 21.641,6.921 L21.641,17.071 C21.641,17.73 21.287,18.344 20.717,18.675 L11.923,23.753 C11.643,23.916 11.324,24 10.998,24 Z M18.099,13.993 C18.099,12.093 16.815,11.587 14.112,11.23 C11.381,10.869 11.103,10.682 11.103,10.043 C11.103,9.515 11.338,8.81 13.361,8.81 C15.168,8.81 15.834,9.199 16.108,10.417 C16.132,10.532 16.237,10.616 16.355,10.616 L17.496,10.616 C17.567,10.616 17.634,10.585 17.682,10.535 C17.73,10.481 17.756,10.412 17.749,10.339 C17.572,8.241 16.178,7.263 13.361,7.263 C10.853,7.263 9.357,8.321 9.357,10.096 C9.357,12.021 10.845,12.553 13.252,12.791 C16.132,13.073 16.355,13.494 16.355,14.06 C16.355,15.043 15.566,15.462 13.713,15.462 C11.386,15.462 10.874,14.878 10.702,13.72 C10.682,13.596 10.576,13.505 10.449,13.505 L9.312,13.505 C9.171,13.505 9.058,13.617 9.058,13.758 C9.058,15.24 9.864,17.006 13.713,17.006 C16.501,17.007 18.099,15.91 18.099,13.993 Z" id="Shape"></path>
        </g>
    </g>
</svg>