<?xml version="1.0" encoding="UTF-8"?>
<svg width="24px" height="24px" viewBox="0 0 24 24" version="1.1" xmlns="http://www.w3.org/2000/svg" xmlns:xlink="http://www.w3.org/1999/xlink">
    <!-- Generator: Sketch 55 (78076) - https://sketchapp.com -->
    <title>postman</title>
    <desc>Created with Sketch.</desc>
    <g id="Page-1" stroke="none" stroke-width="1" fill="none" fill-rule="evenodd">
        <g id="postman" fill="#FF6C37" fill-rule="nonzero">
            <path d="M13.527,0.099 C6.955,-0.744 0.942,3.9 0.099,10.473 C-0.744,17.045 3.899,23.057 10.472,23.901 C17.045,24.744 23.059,20.1 23.9,13.527 C24.744,6.955 20.101,0.943 13.527,0.099 Z M15.998,7.584 C15.7753181,7.58692405 15.5625646,7.67661777 15.405,7.834 L10.952,12.287 L10.645,11.98 L10.002,11.337 C14.391,6.961 15.182,6.919 15.998,7.584 L15.998,7.584 Z M11.135,12.445 L15.575,8.005 C15.7335547,7.83871005 15.9710708,7.77373996 16.1921906,7.83617385 C16.4133104,7.89860775 16.5817716,8.07820687 16.6299405,8.30286593 C16.6781095,8.52752499 16.5980869,8.76040135 16.422,8.908 L11.723,13.033 L11.135,12.445 L11.135,12.445 Z M11.465,13.139 L10.365,13.377 C10.3379559,13.3830921 10.3102591,13.3698638 10.298,13.345 C10.2842403,13.3212444 10.2883587,13.2911801 10.308,13.272 L10.953,12.627 L11.465,13.139 L11.465,13.139 Z M8.662,12.68 L9.834,11.508 L10.713,12.386 L8.734,12.812 C8.70000161,12.8208199 8.6644872,12.804525 8.649,12.773 C8.62974048,12.7430503 8.63526615,12.7035205 8.662,12.68 L8.662,12.68 Z M5.016,18.738 C4.99580954,18.7362267 4.97716383,18.726462 4.96420693,18.7108762 C4.95125003,18.6952903 4.94505547,18.6751747 4.947,18.655 C4.94889622,18.6376131 4.9566552,18.6213898 4.969,18.609 L4.971,18.609 L5.917,17.663 L7.139,18.885 L5.016,18.738 L5.016,18.738 Z M7.441,17.482 C7.34769563,17.5302033 7.29938682,17.6359047 7.324,17.738 L7.527,18.603 C7.54047806,18.6577896 7.51558072,18.7148162 7.46623608,18.7421779 C7.41689144,18.7695396 7.3553339,18.7604525 7.316,18.72 L7.313,18.72 L6.379,17.786 L6.085,17.491 L9.847,13.733 L11.667,13.34 L12.541,14.214 C11.286,15.316 9.57,16.415 7.441,17.482 L7.441,17.482 Z M12.72,14.054 L12.718,14.054 L11.879,13.215 L16.578,9.09 C16.6214612,9.05138891 16.6612942,9.00887798 16.697,8.963 C16.549,10.308 14.668,12.208 12.72,14.054 L12.72,14.054 Z M16.377,7.594 L16.374,7.592 C15.6871887,6.90191415 15.6642791,5.79379418 16.3219816,5.07591143 C16.9796842,4.35802869 18.0855712,4.28407819 18.833,4.908 L17.223,6.521 C17.2004656,6.543345 17.1877899,6.57376521 17.1877899,6.6055 C17.1877899,6.63723479 17.2004656,6.667655 17.223,6.69 L18.47,7.937 C17.7710593,8.28395008 16.9286384,8.14589449 16.377,7.594 L16.377,7.594 Z M18.955,7.594 C18.8722921,7.6756675 18.7814914,7.74871011 18.684,7.812 L18.683,7.812 L17.476,6.605 L19.009,5.072 C19.67,5.792 19.646,6.904 18.955,7.594 L18.955,7.594 Z M18.855,6.05 C18.8057227,6.08572194 18.7844556,6.14872042 18.802,6.207 C18.8747404,6.35430607 18.853974,6.53062474 18.749,6.657 C18.7258624,6.6861489 18.7152827,6.72331069 18.7195984,6.76027532 C18.723914,6.79723995 18.7427698,6.83096511 18.772,6.854 C18.796016,6.87282625 18.8254914,6.88335318 18.856,6.884 C18.8969451,6.88363654 18.9356787,6.86536596 18.962,6.834 C19.1375164,6.62313545 19.1716594,6.32840689 19.049,6.083 C19.0278481,6.05264227 18.9953915,6.03204996 18.9589155,6.02584528 C18.9224395,6.0196406 18.8849997,6.02834332 18.855,6.05 L18.855,6.05 Z" id="Shape"></path>
        </g>
    </g>
</svg>