<?xml version="1.0" encoding="UTF-8"?>
<svg width="24px" height="24px" viewBox="0 0 24 24" version="1.1" xmlns="http://www.w3.org/2000/svg" xmlns:xlink="http://www.w3.org/1999/xlink">
    <!-- Generator: Sketch 55 (78076) - https://sketchapp.com -->
    <title>sass</title>
    <desc>Created with Sketch.</desc>
    <g id="Page-1" stroke="none" stroke-width="1" fill="none" fill-rule="evenodd">
        <g id="sass" fill="#CC6699" fill-rule="nonzero">
            <path d="M12,0 C18.627,0 24,5.373 24,12 C24,18.627 18.627,24 12,24 C5.373,24 0,18.627 0,12 C0,5.373 5.373,0 12,0 Z M9.615,15.998 C9.79,16.643 9.771,17.246 9.591,17.79 L9.526,17.97 C9.502,18.031 9.474,18.09 9.448,18.146 C9.308,18.436 9.122,18.706 8.893,18.956 C8.195,19.715 7.221,20.003 6.803,19.761 C6.353,19.499 6.577,18.426 7.387,17.571 C8.258,16.653 9.507,16.062 9.507,16.062 L9.507,16.059 L9.615,15.998 L9.615,15.998 Z M19.526,5.137 C18.984,3.004 15.449,2.303 12.104,3.492 C10.115,4.199 7.96,5.31 6.411,6.759 C4.568,8.48 4.275,9.98 4.396,10.607 C4.823,12.818 7.853,14.264 9.099,15.337 L9.099,15.343 C8.732,15.523 6.043,16.872 5.413,18.268 C4.738,19.738 5.518,20.789 6.028,20.923 C7.603,21.359 9.223,20.563 10.093,19.274 C10.933,18.013 10.859,16.393 10.497,15.598 C10.993,15.463 11.577,15.403 12.327,15.494 C14.428,15.734 14.848,17.054 14.757,17.594 C14.667,18.133 14.234,18.448 14.083,18.538 C13.933,18.629 13.888,18.658 13.902,18.719 C13.917,18.809 13.993,18.809 14.112,18.794 C14.277,18.764 15.208,18.344 15.253,17.323 C15.298,16.033 14.067,14.594 11.878,14.623 C10.978,14.639 10.407,14.714 10.003,14.879 C9.973,14.834 9.942,14.804 9.898,14.774 C8.548,13.319 6.043,12.299 6.148,10.364 C6.178,9.659 6.433,7.8 10.948,5.55 C14.653,3.704 17.609,4.215 18.119,5.34 C18.852,6.944 16.543,9.93 12.688,10.364 C11.218,10.529 10.453,9.96 10.257,9.749 C10.048,9.524 10.018,9.509 9.943,9.555 C9.823,9.615 9.898,9.81 9.943,9.93 C10.063,10.23 10.528,10.755 11.339,11.025 C12.043,11.25 13.769,11.384 15.839,10.575 C18.163,9.676 19.978,7.17 19.453,5.07 L19.526,5.137 Z" id="Shape"></path>
        </g>
    </g>
</svg>