<?xml version="1.0" encoding="UTF-8"?>
<svg width="24px" height="22px" viewBox="0 0 24 22" version="1.1" xmlns="http://www.w3.org/2000/svg" xmlns:xlink="http://www.w3.org/1999/xlink">
    <!-- Generator: Sketch 55 (78076) - https://sketchapp.com -->
    <title>sketch</title>
    <desc>Created with Sketch.</desc>
    <g id="Page-1" stroke="none" stroke-width="1" fill="none" fill-rule="evenodd">
        <g id="sketch" fill="#F7B500" fill-rule="nonzero">
            <path d="M12,0.25 L18.75,6.887 L18.75,1 L12,0.25 Z M12,0.25 L5.95,7.25 L18.05,7.25 L12,0.25 Z M12,0.25 L5.25,1 L5.25,6.887 L12,0.25 Z M5.25,1 L0,8 L4.416,7.32 L5.25,1 Z M0,8 L11.959,21.703 L11.967,21.689 L4.443,8 L0,8 Z M18.75,1 L19.584,7.32 L24,8 L18.75,1 Z M24,8 L19.494,8 L11.971,21.69 L12,21.75 L24,8 Z M5.436,8 L11.969,21.686 L18.564,8 L5.436,8 Z" id="Shape"></path>
        </g>
    </g>
</svg>